HIERARCHY
ROOT joint_0
{
	OFFSET 0.000000 0.000000 0.000000
	CHANNELS 6 Xposition Yposition Zposition Zrotation Yrotation Xrotation 
	JOINT joint_1
	{
		OFFSET 14.113007 -2.961990 123.953979
		CHANNELS 3 Zrotation Yrotation Xrotation
		JOINT joint_2
		{
			OFFSET 0.764000 -2.434006 113.871948
			CHANNELS 3 Zrotation Yrotation Xrotation
			JOINT joint_3
			{
				OFFSET 0.186996 -2.169998 113.753052
				CHANNELS 3 Zrotation Yrotation Xrotation
				JOINT joint_4
				{
					OFFSET 16.096001 -2.720001 160.853027
					CHANNELS 3 Zrotation Yrotation Xrotation
					JOINT joint_5
					{
						OFFSET 34.392006 -0.188995 92.567017
						CHANNELS 3 Zrotation Yrotation Xrotation
						End Site
						{
							OFFSET 0.000000 0.000000 0.000000
						}
					}
				}
				JOINT joint_6
				{
					OFFSET 9.183998 -36.684006 89.597046
					CHANNELS 3 Zrotation Yrotation Xrotation
					JOINT joint_7
					{
						OFFSET 0.486000 -164.365997 -28.984009
						CHANNELS 3 Zrotation Yrotation Xrotation
						JOINT joint_8
						{
							OFFSET 38.899002 -34.967010 -291.651978
							CHANNELS 3 Zrotation Yrotation Xrotation
							JOINT joint_9
							{
								OFFSET 41.714005 -45.890991 -258.857056
								CHANNELS 3 Zrotation Yrotation Xrotation
								End Site
								{
									OFFSET 0.000000 0.000000 0.000000
								}
							}
						}
					}
				}
				JOINT joint_10
				{
					OFFSET 8.867004 33.650002 90.817993
					CHANNELS 3 Zrotation Yrotation Xrotation
					JOINT joint_11
					{
						OFFSET 0.018997 164.299999 -29.368042
						CHANNELS 3 Zrotation Yrotation Xrotation
						JOINT joint_12
						{
							OFFSET 29.440994 30.887997 -293.216919
							CHANNELS 3 Zrotation Yrotation Xrotation
							JOINT joint_13
							{
								OFFSET 46.174011 54.490005 -256.422058
								CHANNELS 3 Zrotation Yrotation Xrotation
								End Site
								{
									OFFSET 0.000000 0.000000 0.000000
								}
							}
						}
					}
				}
			}
		}
	}
	JOINT joint_14
	{
		OFFSET -2.264000 -89.466995 -116.150024
		CHANNELS 3 Zrotation Yrotation Xrotation
		JOINT joint_15
		{
			OFFSET -16.400993 -17.452988 -493.781982
			CHANNELS 3 Zrotation Yrotation Xrotation
			JOINT joint_16
			{
				OFFSET -50.497004 -13.404022 -424.754013
				CHANNELS 3 Zrotation Yrotation Xrotation
				JOINT joint_17
				{
					OFFSET 198.546007 -19.341003 -89.309000
					CHANNELS 3 Zrotation Yrotation Xrotation
					End Site
					{
						OFFSET 0.000000 0.000000 0.000000
					}
				}
			}
		}
	}
	JOINT joint_18
	{
		OFFSET -0.867996 96.016006 -110.817993
		CHANNELS 3 Zrotation Yrotation Xrotation
		JOINT joint_19
		{
			OFFSET -10.130997 24.658998 -493.645020
			CHANNELS 3 Zrotation Yrotation Xrotation
			JOINT joint_20
			{
				OFFSET -48.871004 19.434999 -424.714005
				CHANNELS 3 Zrotation Yrotation Xrotation
				JOINT joint_21
				{
					OFFSET 195.579996 24.926001 -94.327003
					CHANNELS 3 Zrotation Yrotation Xrotation
					End Site
					{
						OFFSET 0.000000 0.000000 0.000000
					}
				}
			}
		}
	}
}
MOTION
Frames: 18
Frame Time: 0.016667
665.799010 -251.179000 1091.651000 -6.269904 6.619786 -1.146518 -0.493010 5.451155 7.166141 -0.183179 -0.680795 -1.264452 -0.079258 0.952292 1.237793 -0.298710 3.953603 0.696008 0.000000 0.000000 0.000000 2.796701 2.041382 -0.222535 -1.202082 2.648183 -10.203494 1.260415 0.581417 8.187752 0.000000 0.000000 0.000000 -4.026872 4.654137 1.196136 1.675344 5.594720 2.250768 1.565380 7.752540 -4.135080 0.000000 0.000000 0.000000 3.686996 -31.243849 -1.359587 -1.930062 38.728822 5.495423 -2.357142 -10.682819 -2.022066 0.000000 0.000000 0.000000 -3.943043 1.488327 5.982859 -1.938178 39.568211 -3.336898 -11.481106 13.367196 -5.745399 0.000000 0.000000 0.000000 
696.137020 -255.623990 1086.592040 -6.542431 5.638973 -1.468885 -0.400758 6.183592 8.235693 0.257236 -0.742530 -1.413166 0.404858 1.065772 1.384376 -0.312042 4.213013 0.727551 0.000000 0.000000 0.000000 2.017984 1.305588 0.088391 -1.386648 1.799602 -11.158383 0.998365 1.246896 7.375214 0.000000 0.000000 0.000000 -3.387553 4.145156 0.704876 1.310643 4.932102 2.091496 1.079577 6.029419 -3.465086 0.000000 0.000000 0.000000 4.291574 -29.713936 -1.072836 -1.961716 41.571559 5.981429 -2.631244 -12.141932 -2.308859 0.000000 0.000000 0.000000 -3.457325 -1.147767 6.026705 -1.019940 47.890228 -2.181614 -13.989188 13.699557 -6.525547 0.000000 0.000000 0.000000 
726.002990 -259.536010 1082.885990 -6.723936 4.698999 -1.990681 -0.366236 7.043466 9.605364 0.782611 -0.822829 -1.649508 0.997268 1.191398 1.549550 -0.315646 4.067712 0.737132 0.000000 0.000000 0.000000 1.151530 0.424919 0.713761 -1.602909 0.797550 -12.408360 0.630825 2.165156 6.243697 0.000000 0.000000 0.000000 -2.509085 3.678238 0.283770 0.836882 4.247444 1.696979 0.435273 3.741366 -3.138242 0.000000 0.000000 0.000000 4.909078 -27.963013 -0.573438 -1.997896 43.790925 6.522636 -2.801957 -13.547928 -2.568024 0.000000 0.000000 0.000000 -2.465725 -4.287379 6.021620 0.241405 56.491208 -0.020922 -15.678865 12.783714 -6.794619 0.000000 0.000000 0.000000 
755.375000 -263.138000 1081.079960 -6.875495 3.988420 -2.489569 -0.345999 7.779835 10.742526 1.283814 -0.868547 -1.840098 1.557249 1.268136 1.693305 -0.329251 3.897696 0.767891 0.000000 0.000000 0.000000 0.612753 -0.347801 1.235268 -1.753779 -0.037107 -13.143661 0.203676 3.000101 4.690734 0.000000 0.000000 0.000000 -1.868386 3.285924 0.050913 0.426152 3.680488 1.120430 -0.154903 1.939782 -3.709900 0.000000 0.000000 0.000000 5.352535 -26.030156 0.075864 -2.019950 45.045746 6.812952 -2.927854 -14.587446 -2.772575 0.000000 0.000000 0.000000 -1.256776 -7.741526 6.023201 1.438172 63.810839 2.026209 -16.255895 11.614654 -6.686226 0.000000 0.000000 0.000000 
783.953000 -266.359010 1081.564940 -6.949187 3.622106 -2.869331 -0.315193 8.292169 11.446547 1.682958 -0.872639 -1.945188 1.985252 1.292117 1.823942 -0.363936 3.832707 0.840389 0.000000 0.000000 0.000000 0.686181 -0.912820 1.456157 -1.831261 -0.556792 -12.920000 -0.345950 3.709328 2.261414 0.000000 0.000000 0.000000 -1.697317 2.976847 0.161661 0.085718 3.286058 0.229850 -0.690157 1.120189 -5.800890 0.000000 0.000000 0.000000 5.550519 -23.966116 0.815617 -2.060586 45.166589 6.670708 -3.099146 -15.200981 -2.930761 0.000000 0.000000 0.000000 0.029832 -11.790227 5.997992 2.363820 69.893803 3.360611 -15.564700 10.269059 -6.115485 0.000000 0.000000 0.000000 
812.036990 -269.271000 1083.949950 -6.939784 3.476740 -3.239153 -0.252663 8.680431 11.978894 2.012946 -0.873439 -2.042426 2.326182 1.294070 1.940577 -0.407148 3.751784 0.930377 0.000000 0.000000 0.000000 1.111592 -1.370934 1.558412 -1.865218 -0.910224 -12.216625 -0.948272 4.411270 -0.570497 0.000000 0.000000 0.000000 -1.781281 2.710953 0.415817 -0.187451 2.990363 -0.771636 -1.170040 0.807349 -8.692692 0.000000 0.000000 0.000000 5.539696 -21.714894 1.681953 -2.100896 44.332451 6.230458 -3.256468 -15.562810 -3.033982 0.000000 0.000000 0.000000 1.315836 -16.363967 5.862991 2.927632 75.094575 4.041224 -14.155161 8.397245 -5.190644 0.000000 0.000000 0.000000 
840.502990 -272.312010 1087.599000 -6.852967 3.431913 -3.597525 -0.149615 8.877418 12.391042 2.272899 -0.853304 -2.141866 2.586749 1.282476 2.005460 -0.454512 3.665294 1.035453 0.000000 0.000000 0.000000 1.482774 -1.752946 1.624615 -1.849469 -1.206559 -11.506369 -1.374370 4.998571 -2.520837 0.000000 0.000000 0.000000 -1.935172 2.452664 0.557977 -0.363207 2.731181 -1.537740 -1.474587 0.616606 -10.721697 0.000000 0.000000 0.000000 5.266204 -19.151697 2.589815 -2.067245 42.685669 5.673915 -3.263254 -15.724604 -3.033809 0.000000 0.000000 0.000000 2.359584 -20.976072 5.650207 2.963365 78.681775 3.939493 -13.295966 6.110680 -4.636401 0.000000 0.000000 0.000000 
869.437990 -275.842990 1092.588990 -6.392442 3.492392 -3.836777 -0.131483 8.786392 12.537870 2.367242 -0.801715 -2.184158 2.679362 1.267416 2.003582 -0.508279 3.578655 1.164375 0.000000 0.000000 0.000000 1.621650 -2.108745 1.687797 -1.779680 -1.529244 -10.908916 -1.541966 5.518319 -2.983052 0.000000 0.000000 0.000000 -2.148447 2.166353 0.603196 -0.479194 2.461226 -2.069721 -1.564612 0.381430 -10.918694 0.000000 0.000000 0.000000 4.558275 -16.025373 3.387267 -2.009366 39.873747 5.090197 -3.098517 -15.666568 -2.918962 0.000000 0.000000 0.000000 2.955499 -25.558460 5.345440 2.336943 80.054068 2.935610 -13.756066 3.819095 -4.851869 0.000000 0.000000 0.000000 
898.754030 -279.502990 1098.844970 -5.697331 3.600944 -3.953616 -0.183703 8.627781 12.389845 2.353873 -0.799546 -2.160300 2.681565 1.244092 1.959737 -0.567080 3.484818 1.309470 0.000000 0.000000 0.000000 1.692655 -2.387592 1.681205 -1.662422 -1.798280 -10.235365 -1.538936 5.877550 -2.583817 0.000000 0.000000 0.000000 -2.431711 1.895096 0.634089 -0.553068 2.225101 -2.466000 -1.532819 0.221938 -10.254063 0.000000 0.000000 0.000000 3.540215 -12.416311 4.043677 -1.880237 36.032549 4.440619 -2.773478 -15.214405 -2.696018 0.000000 0.000000 0.000000 3.139808 -29.930669 4.945014 1.322260 79.348137 1.132479 -15.088533 1.975068 -5.405563 0.000000 0.000000 0.000000 
929.068970 -282.657010 1105.503050 -5.363053 3.638354 -4.067241 -0.093289 8.590079 12.117048 2.430060 -0.869316 -2.125285 2.782765 1.210035 1.902700 -0.621071 3.383381 1.442536 0.000000 0.000000 0.000000 1.798197 -2.458742 1.511480 -1.509079 -1.865814 -9.427385 -1.395226 5.694663 -1.931282 0.000000 0.000000 0.000000 -2.627612 1.743457 0.611105 -0.596321 2.101178 -2.655017 -1.518041 0.196535 -9.958674 0.000000 0.000000 0.000000 2.623248 -8.803030 4.543926 -1.512451 32.137594 3.760014 -2.215557 -14.353830 -2.355238 0.000000 0.000000 0.000000 3.045343 -33.579332 4.661032 0.329803 77.063611 -1.148105 -16.603359 0.292894 -5.953772 0.000000 0.000000 0.000000 
960.640990 -285.043000 1112.675050 -5.455530 3.717244 -4.190768 0.252145 8.431554 11.814415 2.610372 -0.880872 -2.122907 2.937817 1.173491 1.837225 -0.669462 3.244774 1.560240 0.000000 0.000000 0.000000 1.964891 -2.227431 1.090672 -1.308118 -1.635801 -8.347834 -1.112883 4.713549 -1.341932 0.000000 0.000000 0.000000 -2.702584 1.726219 0.484655 -0.605197 2.100695 -2.547111 -1.559271 0.469053 -10.548379 0.000000 0.000000 0.000000 1.909679 -5.371790 4.808554 -0.925256 28.314594 3.058169 -1.423386 -13.307182 -1.914632 0.000000 0.000000 0.000000 2.604821 -36.424590 4.722545 -0.703640 72.839167 -4.065550 -18.230628 -1.350491 -6.541576 0.000000 0.000000 0.000000 
993.211980 -286.922000 1120.250000 -5.718178 3.837058 -4.259430 0.753326 8.124635 11.359596 2.788463 -0.851364 -2.088984 3.043241 1.139276 1.760286 -0.709619 3.091613 1.660251 0.000000 0.000000 0.000000 2.153763 -1.798304 0.523678 -1.063296 -1.217975 -7.122317 -0.690922 3.158117 -0.579396 0.000000 0.000000 0.000000 -2.692332 1.823399 0.299442 -0.591051 2.207047 -2.210810 -1.621469 0.905341 -11.504142 0.000000 0.000000 0.000000 1.363406 -2.026700 4.773447 -0.247050 24.417256 2.454644 -0.512635 -11.944192 -1.401665 0.000000 0.000000 0.000000 1.798752 -38.404157 5.004477 -1.868465 66.428547 -7.389463 -19.462499 -2.381483 -7.054742 0.000000 0.000000 0.000000 
1026.626950 -288.446010 1127.036990 -6.189664 3.881296 -4.338239 1.279068 7.800697 10.753974 2.953888 -0.849893 -1.985847 3.140856 1.107750 1.687909 -0.730767 3.011465 1.718141 0.000000 0.000000 0.000000 2.379672 -1.330630 -0.006943 -0.820651 -0.757712 -6.078945 -0.159643 1.370469 0.594797 0.000000 0.000000 0.000000 -2.546317 2.092206 0.168218 -0.601395 2.459395 -1.823072 -1.744202 1.123483 -12.508524 0.000000 0.000000 0.000000 1.157755 0.907864 4.524783 0.473525 21.292288 2.119499 0.392607 -10.111047 -0.852323 0.000000 0.000000 0.000000 0.985233 -39.530350 5.179352 -2.904143 58.927708 -9.944810 -19.421987 -3.351152 -7.085093 0.000000 0.000000 0.000000 
1060.797000 -289.424990 1133.152950 -6.773039 3.965201 -4.483070 1.747647 7.242832 10.113479 3.071281 -0.766719 -1.835800 3.194977 1.057357 1.599323 -0.725040 3.012849 1.713188 0.000000 0.000000 0.000000 2.703363 -0.828234 -0.429697 -0.612273 -0.240413 -5.368439 0.502482 -0.708158 2.336016 0.000000 0.000000 0.000000 -2.234356 2.584824 0.118062 -0.665066 2.901117 -1.434432 -1.963521 0.935223 -13.524178 0.000000 0.000000 0.000000 1.328859 3.088568 4.168904 1.195978 19.340916 2.090033 1.251307 -7.795581 -0.283225 0.000000 0.000000 0.000000 0.269533 -40.032160 4.942263 -3.786548 50.270118 -10.967122 -18.011440 -5.186838 -6.462595 0.000000 0.000000 0.000000 
1095.811040 -290.049010 1138.479980 -7.562985 3.974316 -4.771636 2.196741 6.645719 9.587308 3.202278 -0.672569 -1.725727 3.281893 0.978863 1.493458 -0.702470 3.077420 1.668783 0.000000 0.000000 0.000000 3.073938 -0.276242 -0.799687 -0.449982 0.343424 -4.858788 1.243971 -3.074381 4.478270 0.000000 0.000000 0.000000 -1.783196 3.254652 0.149298 -0.768195 3.494202 -1.012339 -2.243610 0.512585 -14.592309 0.000000 0.000000 0.000000 1.819506 4.817426 3.837619 1.977385 18.262804 2.251555 2.145802 -5.254176 0.311626 0.000000 0.000000 0.000000 -0.345741 -39.584940 4.588344 -4.552406 40.043861 -10.484247 -15.572141 -6.717049 -5.398926 0.000000 0.000000 0.000000 
1131.777950 -291.036010 1141.479000 -8.686188 3.622257 -5.253226 2.649348 6.362785 9.230726 3.404660 -0.735019 -1.700867 3.474155 0.910127 1.410013 -0.680098 3.242424 1.627653 0.000000 0.000000 0.000000 3.346223 0.210803 -1.160083 -0.343392 0.857469 -4.454337 1.947330 -5.265957 6.893955 0.000000 0.000000 0.000000 -1.241353 4.009250 0.367663 -0.889259 4.156517 -0.659291 -2.515496 -0.002992 -15.517956 0.000000 0.000000 0.000000 2.551494 6.523298 3.631686 2.860884 17.972001 2.545404 3.123753 -2.823249 0.913851 0.000000 0.000000 0.000000 -0.693857 -38.125585 4.598563 -5.030511 30.091891 -8.944163 -12.867278 -6.884874 -4.304197 0.000000 0.000000 0.000000 
1168.863040 -292.881010 1141.845950 -9.587574 3.112695 -5.749525 2.909013 5.881310 8.802000 3.491240 -0.699740 -1.631081 3.548836 0.855589 1.352484 -0.668908 3.517693 1.618910 0.000000 0.000000 0.000000 3.484208 0.627643 -1.563064 -0.288548 1.290926 -4.148474 2.617917 -7.127630 9.776130 0.000000 0.000000 0.000000 -0.587126 4.837612 0.896489 -1.033936 4.872800 -0.489180 -2.763885 -0.635385 -16.166995 0.000000 0.000000 0.000000 3.314597 8.145581 3.464437 3.674359 18.367556 3.067078 4.068567 -0.382326 1.480950 0.000000 0.000000 0.000000 -0.927640 -36.139061 4.810864 -5.208119 21.466876 -6.709147 -10.362613 -7.256201 -3.221543 0.000000 0.000000 0.000000 
1206.901000 -295.088990 1139.885010 -10.354028 2.478381 -6.254560 3.028036 5.220721 8.341460 3.477380 -0.570515 -1.516547 3.518319 0.786145 1.298105 -0.652711 3.876287 1.603113 0.000000 0.000000 0.000000 3.535423 0.988613 -1.991240 -0.274021 1.665151 -3.958146 3.267662 -8.746200 13.032203 0.000000 0.000000 0.000000 0.160465 5.757378 1.669815 -1.195887 5.664277 -0.462378 -3.000562 -1.368971 -16.667829 0.000000 0.000000 0.000000 4.136689 9.589493 3.311927 4.433304 19.466852 3.810016 5.027282 2.071420 2.027579 0.000000 0.000000 0.000000 -1.098351 -33.686918 5.071658 -5.151890 13.557159 -4.007794 -8.099904 -7.796993 -2.191021 0.000000 0.000000 0.000000 
